<svg width="52" height="52" viewBox="0 0 52 52" fill="none" xmlns="http://www.w3.org/2000/svg">
<path fill-rule="evenodd" clip-rule="evenodd" d="M3.25 26C3.25 32.0337 5.64687 37.8202 9.91332 42.0867C14.1798 46.3531 19.9663 48.75 26 48.75C32.0337 48.75 37.8202 46.3531 42.0867 42.0867C46.3531 37.8202 48.75 32.0337 48.75 26C48.75 19.9663 46.3531 14.1798 42.0867 9.91332C37.8202 5.64687 32.0337 3.25 26 3.25C19.9663 3.25 14.1798 5.64687 9.91332 9.91332C5.64687 14.1798 3.25 19.9663 3.25 26V26ZM52 26C52 32.8956 49.2607 39.5088 44.3848 44.3848C39.5088 49.2607 32.8956 52 26 52C19.1044 52 12.4912 49.2607 7.61522 44.3848C2.73928 39.5088 0 32.8956 0 26C0 19.1044 2.73928 12.4912 7.61522 7.61522C12.4912 2.73928 19.1044 0 26 0C32.8956 0 39.5088 2.73928 44.3848 7.61522C49.2607 12.4912 52 19.1044 52 26V26ZM27.625 14.625C27.625 14.194 27.4538 13.7807 27.149 13.476C26.8443 13.1712 26.431 13 26 13C25.569 13 25.1557 13.1712 24.851 13.476C24.5462 13.7807 24.375 14.194 24.375 14.625V33.4523L17.4005 26.4745C17.0954 26.1694 16.6815 25.9979 16.25 25.9979C15.8185 25.9979 15.4046 26.1694 15.0995 26.4745C14.7944 26.7796 14.6229 27.1935 14.6229 27.625C14.6229 28.0565 14.7944 28.4704 15.0995 28.7755L24.8495 38.5255C25.0004 38.6768 25.1798 38.7969 25.3772 38.8788C25.5746 38.9607 25.7863 39.0029 26 39.0029C26.2137 39.0029 26.4254 38.9607 26.6228 38.8788C26.8202 38.7969 26.9996 38.6768 27.1505 38.5255L36.9005 28.7755C37.2056 28.4704 37.3771 28.0565 37.3771 27.625C37.3771 27.1935 37.2056 26.7796 36.9005 26.4745C36.5954 26.1694 36.1815 25.9979 35.75 25.9979C35.3185 25.9979 34.9046 26.1694 34.5995 26.4745L27.625 33.4523V14.625Z" fill="#8850FE"/>
</svg>
