<svg width="25" height="22" viewBox="0 0 25 22" fill="none" xmlns="http://www.w3.org/2000/svg">
<path d="M24.8806 8.92489C24.7996 8.5804 24.6409 8.259 24.4166 7.98529C24.2043 7.70156 23.9254 7.47447 23.6046 7.32409C23.29 7.17171 22.945 7.0924 22.5954 7.09209H20.0666L15.7746 0.654091C15.5933 0.429003 15.3345 0.279709 15.0489 0.235447C14.7632 0.191184 14.4714 0.255143 14.2304 0.414797C13.9895 0.57445 13.8169 0.818297 13.7463 1.09858C13.6757 1.37886 13.7124 1.67539 13.849 1.93009L17.329 7.09209H7.70099L11.181 1.93009C11.3502 1.66859 11.4086 1.35058 11.3433 1.04602C11.2781 0.741458 11.0945 0.475299 10.833 0.306091C10.5715 0.136883 10.2535 0.0784867 9.94891 0.143749C9.64435 0.209012 9.37819 0.392587 9.20899 0.654091L4.90539 7.09209H2.37659C2.02335 7.09303 1.67472 7.17226 1.35579 7.32409C1.04138 7.48454 0.764612 7.70991 0.543786 7.98529C0.318363 8.26156 0.152492 8.58146 0.0565858 8.92489C-0.0188619 9.2688 -0.0188619 9.62498 0.0565858 9.96889H0.0565858L2.15619 18.3673C2.34545 19.1335 2.78952 19.8126 3.41554 20.2931C4.04155 20.7737 4.81232 21.0272 5.60139 21.0121H19.3822C20.1564 21.009 20.9075 20.7477 21.5166 20.2697C22.1293 19.7952 22.5661 19.1298 22.7578 18.3789L24.8574 9.96889C24.9405 9.62666 24.9484 9.27048 24.8806 8.92489V8.92489ZM20.5074 17.8105C20.4439 18.0679 20.2941 18.2957 20.0831 18.4561C19.872 18.6165 19.6124 18.6998 19.3474 18.6921H5.60139C5.34508 18.6913 5.09626 18.6056 4.89379 18.4485C4.68667 18.289 4.53951 18.0641 4.47619 17.8105L2.37659 9.41209H22.607L20.5074 17.8105Z" fill="black"/>
<path d="M9.01205 11.7318C8.7044 11.7318 8.40935 11.854 8.19181 12.0716C7.97426 12.2891 7.85205 12.5842 7.85205 12.8918V15.2118C7.85205 15.5195 7.97426 15.8145 8.19181 16.0321C8.40935 16.2496 8.7044 16.3718 9.01205 16.3718C9.3197 16.3718 9.61475 16.2496 9.8323 16.0321C10.0498 15.8145 10.1721 15.5195 10.1721 15.2118V12.8918C10.1721 12.5842 10.0498 12.2891 9.8323 12.0716C9.61475 11.854 9.3197 11.7318 9.01205 11.7318Z" fill="black"/>
<path d="M15.972 11.7318C15.6644 11.7318 15.3693 11.854 15.1518 12.0716C14.9342 12.2891 14.812 12.5842 14.812 12.8918V15.2118C14.812 15.5195 14.9342 15.8145 15.1518 16.0321C15.3693 16.2496 15.6644 16.3718 15.972 16.3718C16.2797 16.3718 16.5747 16.2496 16.7923 16.0321C17.0098 15.8145 17.132 15.5195 17.132 15.2118V12.8918C17.132 12.5842 17.0098 12.2891 16.7923 12.0716C16.5747 11.854 16.2797 11.7318 15.972 11.7318Z" fill="black"/>
</svg>
