<svg width="183" height="25" viewBox="0 0 183 25" fill="none" xmlns="http://www.w3.org/2000/svg">
<path d="M41.5162 4.6731C36.6206 4.6731 33.3319 7.86894 33.3319 12.6248C33.3319 17.3806 36.6206 20.576 41.5162 20.576C46.4118 20.576 49.7005 17.3806 49.7005 12.6248C49.7005 7.86894 46.4118 4.6731 41.5162 4.6731ZM41.5162 16.8086C39.107 16.8086 37.5505 15.1659 37.5505 12.6228C37.5505 10.0797 39.107 8.43656 41.5162 8.43656C43.4334 8.43656 45.482 9.53659 45.482 12.6228C45.48 15.1678 43.9254 16.8105 41.5162 16.8105V16.8086Z" fill="#8850FE"/>
<path d="M124.475 4.6731C119.58 4.6731 116.291 7.86894 116.291 12.6248C116.291 17.3806 119.58 20.576 124.475 20.576C129.37 20.576 132.66 17.3806 132.66 12.6248C132.66 7.86894 129.371 4.6731 124.475 4.6731ZM124.475 16.8086C122.067 16.8086 120.51 15.1659 120.51 12.6228C120.51 10.0797 122.067 8.43656 124.475 8.43656C126.392 8.43656 128.441 9.53659 128.441 12.6228C128.441 15.1678 126.884 16.8105 124.475 16.8105V16.8086Z" fill="#8850FE"/>
<path d="M142.81 4.6731C137.915 4.6731 134.626 7.86894 134.626 12.6248C134.626 17.3806 137.915 20.576 142.81 20.576C147.705 20.576 150.994 17.3806 150.994 12.6248C150.994 7.86894 147.705 4.6731 142.81 4.6731ZM142.81 16.8086C140.401 16.8086 138.844 15.1659 138.844 12.6228C138.844 10.0797 140.401 8.43656 142.81 8.43656C144.727 8.43656 146.776 9.53659 146.776 12.6228C146.776 15.1678 145.219 16.8105 142.81 16.8105V16.8086Z" fill="#8850FE"/>
<path d="M106.093 20.1483C110.989 20.1483 114.278 16.953 114.278 12.1967C114.278 7.42418 111.114 4.34039 106.218 4.34039C104.111 4.34039 102.677 5.16932 101.691 5.95519L101.651 0H97.9088V12.1967C97.9088 16.953 101.198 20.1483 106.093 20.1483ZM101.881 11.1798C102.213 9.37319 103.962 8.01089 105.95 8.01089C108.446 8.01089 110.059 9.65407 110.059 12.1967C110.059 14.7392 108.448 16.3829 105.95 16.3829C103.963 16.3829 101.84 15.2829 101.84 12.1967C101.84 12.114 101.855 11.334 101.881 11.1798Z" fill="#8850FE"/>
<path d="M14.7458 12.7183V24.9154H18.4885L18.5295 18.9597C19.5149 19.7461 20.9485 20.5745 23.056 20.5745C27.9521 20.5745 31.1159 17.4917 31.1159 12.7183C31.1159 7.96244 27.8267 4.76709 22.9311 4.76709C18.0355 4.76709 14.7458 7.96244 14.7458 12.7183ZM18.6774 12.7183C18.6774 9.63205 20.8001 8.53252 22.7866 8.53252C25.2832 8.53252 26.8959 10.1757 26.8959 12.7183C26.8959 15.2609 25.2852 16.9045 22.7866 16.9045C20.7986 16.9045 19.0498 15.5422 18.7184 13.7351C18.6901 13.5815 18.6774 12.801 18.6774 12.7183Z" fill="#8850FE"/>
<path d="M168.23 20.1977L160.921 12.5646L167.583 5.07921H162.596L157.096 11.259V0.320435H152.956V20.1977H157.096V13.8016L163.101 20.1977H168.23Z" fill="#8850FE"/>
<path d="M55.4155 7.07675L55.375 5.47956H51.6787V20.6H55.7787V12.9174C55.7787 12.8347 55.8197 12.0572 55.8197 11.9006C55.8197 9.28266 57.7233 8.73167 59.7103 8.73167C60.2257 8.73167 60.8192 8.81437 61.0594 8.91371V5.20406C59.1041 4.9824 56.6739 5.1106 55.4155 7.07675Z" fill="#8850FE"/>
<path d="M6.33105 20.5809C8.25266 20.5809 12.7216 20.0915 12.7216 15.5334C12.7216 14.0306 12.1969 12.9213 11.1173 12.1423C10.1128 11.4171 8.61922 10.9757 6.55069 10.7927C6.49651 10.7878 6.43208 10.7839 6.35984 10.7795C5.72532 10.7394 4.40747 10.6562 4.43627 9.57281C4.46068 8.69201 5.32899 8.3759 6.13288 8.3759C6.83378 8.3759 8.28683 8.3759 8.4152 9.65942H12.4083C12.2985 5.97669 9.0995 4.66821 6.38766 4.66821C2.52783 4.6687 0.22257 6.61038 0.22257 9.85858C0.22257 11.3887 0.894185 12.5548 2.21887 13.3236C3.24386 13.9186 4.63492 14.2699 6.35301 14.3678C7.40875 14.428 8.53673 14.8356 8.53673 15.7986C8.53424 15.9043 8.51042 16.0084 8.46672 16.1046C8.42301 16.2008 8.36033 16.2871 8.28244 16.3584C7.92955 16.7049 7.24231 16.903 6.44087 16.8825C5.43686 16.8825 4.31327 16.3197 4.19174 15.277H0C0.152285 19.8909 4.03018 20.5809 6.33105 20.5809Z" fill="#8850FE"/>
<path d="M79.9881 20.5809C81.9097 20.5809 86.3791 20.0915 86.3791 15.5334C86.3791 14.0306 85.854 12.9213 84.7743 12.1423C83.7698 11.4171 82.2762 10.9757 80.2077 10.7927C80.1535 10.7878 80.0891 10.7839 80.0173 10.7795C79.3828 10.7394 78.065 10.6562 78.0933 9.57281C78.1177 8.69201 78.986 8.3759 79.7904 8.3759C80.4908 8.3759 81.9438 8.3759 82.0722 9.65942H86.0653C85.9555 5.97669 82.7565 4.66821 80.0447 4.66821C76.1844 4.66821 73.8801 6.60842 73.8801 9.85809C73.8801 11.3882 74.5517 12.5543 75.8759 13.3231C76.9009 13.9181 78.2919 14.2694 80.0105 14.3673C81.0658 14.4275 82.1937 14.8351 82.1937 15.7981C82.1912 15.9038 82.1674 16.0079 82.1237 16.1041C82.08 16.2003 82.0173 16.2866 81.9394 16.3579C81.5866 16.7044 80.8998 16.9025 80.0979 16.882C79.0939 16.882 77.9703 16.3193 77.8488 15.2765H73.6575C73.8083 19.8909 77.6862 20.5809 79.9881 20.5809Z" fill="#8850FE"/>
<path d="M176.609 20.5809C178.531 20.5809 183 20.0915 183 15.5334C183 14.0306 182.475 12.9213 181.395 12.1423C180.391 11.4171 178.897 10.9757 176.829 10.7927C176.774 10.7878 176.71 10.7839 176.638 10.7795C176.004 10.7394 174.686 10.6562 174.714 9.57281C174.739 8.69201 175.607 8.3759 176.411 8.3759C177.112 8.3759 178.565 8.3759 178.693 9.65942H182.686C182.576 5.97669 179.377 4.66821 176.666 4.66821C172.805 4.66821 170.501 6.60842 170.501 9.85809C170.501 11.3882 171.173 12.5543 172.497 13.3231C173.522 13.9181 174.913 14.2694 176.631 14.3673C177.687 14.4275 178.815 14.8351 178.815 15.7981C178.812 15.9038 178.788 16.0079 178.745 16.1041C178.701 16.2003 178.638 16.2866 178.56 16.3579C178.207 16.7044 177.521 16.9025 176.719 16.882C175.715 16.882 174.591 16.3193 174.47 15.2765H170.278C170.432 19.8909 174.308 20.5809 176.609 20.5809Z" fill="#8850FE"/>
<path d="M71.6071 8.74V5.51039H68.6521V1.64465L64.3286 2.34489V5.50892H63.1084V8.73853H64.3286V16.1862C64.3286 19.0786 66.3156 20.6293 68.9426 20.6293C69.8356 20.6281 70.7269 20.5511 71.6071 20.3994V16.7186C71.6071 16.7186 70.9184 16.7915 70.6689 16.8076C69.6225 16.8762 68.6521 16.9256 68.6521 15.872V8.74H71.6071Z" fill="#8850FE"/>
</svg>
