<svg width="191" height="27" viewBox="0 0 191 27" fill="none" xmlns="http://www.w3.org/2000/svg">
<path d="M43.3312 5.33278C38.2216 5.33278 34.7891 8.66833 34.7891 13.6321C34.7891 18.5958 38.2216 21.9309 43.3312 21.9309C48.4408 21.9309 51.8733 18.5958 51.8733 13.6321C51.8733 8.66833 48.4408 5.33278 43.3312 5.33278ZM43.3312 17.9988C40.8166 17.9988 39.1921 16.2843 39.1921 13.63C39.1921 10.9758 40.8166 9.26077 43.3312 9.26077C45.3322 9.26077 47.4703 10.4089 47.4703 13.63C47.4683 16.2863 45.8457 18.0008 43.3312 18.0008V17.9988Z" fill="white"/>
<path d="M129.917 5.33278C124.808 5.33278 121.375 8.66833 121.375 13.6321C121.375 18.5958 124.808 21.9309 129.917 21.9309C135.026 21.9309 138.459 18.5958 138.459 13.6321C138.459 8.66833 135.026 5.33278 129.917 5.33278ZM129.917 17.9988C127.403 17.9988 125.778 16.2843 125.778 13.63C125.778 10.9758 127.403 9.26077 129.917 9.26077C131.918 9.26077 134.056 10.4089 134.056 13.63C134.056 16.2863 132.431 18.0008 129.917 18.0008V17.9988Z" fill="white"/>
<path d="M149.053 5.33276C143.944 5.33276 140.511 8.66831 140.511 13.6321C140.511 18.5958 143.944 21.9308 149.053 21.9308C154.162 21.9308 157.595 18.5958 157.595 13.6321C157.595 8.66831 154.162 5.33276 149.053 5.33276ZM149.053 17.9988C146.538 17.9988 144.914 16.2843 144.914 13.63C144.914 10.9758 146.538 9.26076 149.053 9.26076C151.054 9.26076 153.192 10.4089 153.192 13.63C153.192 16.2863 151.567 18.0008 149.053 18.0008V17.9988Z" fill="white"/>
<path d="M110.731 21.4845C115.841 21.4845 119.274 18.1495 119.274 13.1852C119.274 8.20413 115.972 4.98553 110.862 4.98553C108.662 4.98553 107.165 5.8507 106.137 6.67093L106.094 0.455399H102.189V13.1852C102.189 18.1495 105.622 21.4845 110.731 21.4845ZM106.335 12.1239C106.681 10.2383 108.506 8.81649 110.581 8.81649C113.187 8.81649 114.87 10.5315 114.87 13.1852C114.87 15.839 113.189 17.5545 110.581 17.5545C108.508 17.5545 106.292 16.4064 106.292 13.1852C106.292 13.0989 106.307 12.2848 106.335 12.1239Z" fill="white"/>
<path d="M15.3906 13.7297V26.46H19.2969L19.3397 20.244C20.3683 21.0647 21.8645 21.9294 24.0642 21.9294C29.1743 21.9294 32.4764 18.7118 32.4764 13.7297C32.4764 8.76593 29.0433 5.43089 23.9338 5.43089C18.8242 5.43089 15.3906 8.76593 15.3906 13.7297ZM19.4941 13.7297C19.4941 10.5085 21.7096 9.36093 23.783 9.36093C26.3887 9.36093 28.0719 11.0759 28.0719 13.7297C28.0719 16.3834 26.3907 18.0989 23.783 18.0989C21.7081 18.0989 19.8828 16.6771 19.5369 14.791C19.5073 14.6306 19.4941 13.816 19.4941 13.7297Z" fill="white"/>
<path d="M175.585 21.5362L167.956 13.5693L174.909 5.75677H169.704L163.964 12.2067V0.789963H159.643V21.5362H163.964V14.8605L170.232 21.5362H175.585Z" fill="white"/>
<path d="M57.8382 7.84139L57.7959 6.17438H53.938V21.9558H58.2172V13.9374C58.2172 13.8511 58.26 13.0396 58.26 12.8761C58.26 10.1437 60.2468 9.56866 62.3207 9.56866C62.8586 9.56866 63.4781 9.65497 63.7287 9.75865V5.88684C61.6879 5.65548 59.1515 5.78929 57.8382 7.84139Z" fill="white"/>
<path d="M6.60781 21.936C8.61344 21.936 13.2778 21.4252 13.2778 16.6678C13.2778 15.0994 12.7301 13.9416 11.6033 13.1285C10.5549 12.3716 8.99602 11.9109 6.83706 11.7199C6.78051 11.7148 6.71326 11.7107 6.63787 11.7061C5.97561 11.6643 4.60015 11.5774 4.63021 10.4467C4.65568 9.52738 5.56195 9.19745 6.40098 9.19745C7.13252 9.19745 8.6491 9.19745 8.78308 10.5371H12.9507C12.8361 6.69336 9.4973 5.32768 6.66691 5.32768C2.63834 5.32819 0.2323 7.35475 0.2323 10.745C0.2323 12.342 0.933276 13.559 2.31587 14.3614C3.38567 14.9824 4.83754 15.3491 6.63074 15.4513C7.73263 15.5141 8.90992 15.9395 8.90992 16.9446C8.90732 17.055 8.88246 17.1636 8.83685 17.264C8.79123 17.3644 8.72581 17.4545 8.64451 17.5289C8.27619 17.8905 7.55892 18.0974 6.72243 18.0759C5.67454 18.0759 4.50183 17.4886 4.37498 16.4002H0C0.158942 21.2158 4.20636 21.936 6.60781 21.936Z" fill="white"/>
<path d="M83.4847 21.936C85.4904 21.936 90.1552 21.4252 90.1552 16.6678C90.1552 15.0994 89.6071 13.9416 88.4802 13.1285C87.4318 12.3716 85.8729 11.9109 83.714 11.7199C83.6574 11.7148 83.5902 11.7107 83.5153 11.7061C82.853 11.6643 81.4776 11.5774 81.5071 10.4467C81.5326 9.52738 82.4389 9.19745 83.2784 9.19745C84.0095 9.19745 85.526 9.19745 85.66 10.5371H89.8277C89.713 6.69336 86.3742 5.32768 83.5438 5.32768C79.5148 5.32768 77.1097 7.35271 77.1097 10.7444C77.1097 12.3415 77.8107 13.5585 79.1928 14.3609C80.2626 14.9819 81.7145 15.3486 83.5082 15.4508C84.6096 15.5136 85.7869 15.939 85.7869 16.9441C85.7843 17.0544 85.7594 17.1631 85.7138 17.2635C85.6682 17.3639 85.6027 17.454 85.5214 17.5284C85.1531 17.89 84.4364 18.0968 83.5994 18.0754C82.5515 18.0754 81.3788 17.4881 81.2519 16.3997H76.8774C77.0349 21.2158 81.0823 21.936 83.4847 21.936Z" fill="white"/>
<path d="M184.329 21.936C186.335 21.936 191 21.4252 191 16.6678C191 15.0994 190.452 13.9416 189.325 13.1285C188.277 12.3716 186.718 11.9109 184.559 11.7199C184.502 11.7148 184.435 11.7107 184.36 11.7061C183.698 11.6643 182.322 11.5774 182.352 10.4467C182.377 9.52738 183.284 9.19745 184.123 9.19745C184.854 9.19745 186.371 9.19745 186.505 10.5371H190.672C190.558 6.69336 187.219 5.32768 184.389 5.32768C180.359 5.32768 177.954 7.35271 177.954 10.7444C177.954 12.3415 178.655 13.5585 180.038 14.3609C181.107 14.9819 182.559 15.3486 184.353 15.4508C185.455 15.5136 186.632 15.939 186.632 16.9441C186.629 17.0544 186.604 17.1631 186.559 17.2635C186.513 17.3639 186.447 17.454 186.366 17.5284C185.998 17.89 185.281 18.0968 184.444 18.0754C183.396 18.0754 182.224 17.4881 182.097 16.3997H177.722C177.882 21.2158 181.928 21.936 184.329 21.936Z" fill="white"/>
<path d="M74.7374 9.57735V6.20656H71.6533V2.17183L67.1408 2.90268V6.20503H65.8672V9.57582H67.1408V17.3491C67.1408 20.368 69.2146 21.9865 71.9564 21.9865C72.8885 21.9851 73.8188 21.9048 74.7374 21.7464V17.9047C74.7374 17.9047 74.0186 17.9808 73.7582 17.9977C72.666 18.0692 71.6533 18.1208 71.6533 17.0212V9.57735H74.7374Z" fill="white"/>
</svg>
